<?xml version="1.0" encoding="utf-8"?>
<!-- Generator: Adobe Illustrator 18.1.1, SVG Export Plug-In . SVG Version: 6.00 Build 0)  -->
<svg version="1.1" id="Capa_1" xmlns="http://www.w3.org/2000/svg" xmlns:xlink="http://www.w3.org/1999/xlink" x="0px" y="0px"
	 viewBox="0 0 612 792" enable-background="new 0 0 612 792" xml:space="preserve">
<g>
	<g>
		<path fill="#565656" d="M421.5,489.5c39.1-42.4,63.5-99.1,63.5-161.5c0-131-106.6-238-238-238S9.1,197,9.1,328s106.6,238,238,238
			c53.5,0,102.7-17.6,142.5-47.4l177,177c4.3,4.3,9.7,6.5,15.1,6.5s11.1-2.2,15.1-6.5c8.3-8.3,8.3-21.9,0-30.5L421.5,489.5z
			 M52.2,328c0-107.3,87.2-194.9,194.9-194.9C354.4,133.1,442,220.3,442,328s-87.2,194.9-194.9,194.9S52.2,435.3,52.2,328z"/>
	</g>
</g>
</svg>
